<svg width="128" height="128" viewBox="0 0 128 128" fill="none" xmlns="http://www.w3.org/2000/svg">
<path d="M59.0368 18.9629V50.0146C51.2872 50.7541 43.819 53.301 37.2323 57.4506C30.6456 61.6003 25.124 67.2369 21.1111 73.9078V18.9629C21.1111 13.9336 23.109 9.11033 26.6652 5.5541C30.2214 1.99787 35.0447 0 40.074 0C45.1032 0 49.9265 1.99787 53.4827 5.5541C57.039 9.11033 59.0368 13.9336 59.0368 18.9629Z" fill="#989898"/>
<path d="M106.444 18.9629V73.9078C102.431 67.2369 96.9095 61.6003 90.3228 57.4506C83.7361 53.301 76.268 50.7541 68.5183 50.0146V18.9629C68.5183 13.9336 70.5162 9.11033 74.0724 5.5541C77.6286 1.99787 82.4519 0 87.4812 0C92.5105 0 97.3337 1.99787 100.89 5.5541C104.446 9.11033 106.444 13.9336 106.444 18.9629Z" fill="#AEAEAF"/>
<path d="M106.444 18.9629V73.9078C102.431 67.2369 96.9095 61.6003 90.3228 57.4506C83.7361 53.301 76.268 50.7541 68.5183 50.0146V18.9629C68.5183 13.9336 70.5162 9.11033 74.0724 5.5541C77.6286 1.99787 82.4519 0 87.4812 0C92.5105 0 97.3337 1.99787 100.89 5.5541C104.446 9.11033 106.444 13.9336 106.444 18.9629Z" fill="#989898"/>
<path d="M47.185 18.9626V52.6454C42.0376 54.4333 37.2293 57.0779 32.9629 60.4676V18.9626C32.9629 17.0767 33.7121 15.2679 35.0457 13.9343C36.3793 12.6008 38.188 11.8516 40.074 11.8516C41.9599 11.8516 43.7687 12.6008 45.1023 13.9343C46.4358 15.2679 47.185 17.0767 47.185 18.9626Z" fill="#E5A1B4"/>
<path d="M113.555 99.5555C113.555 107.099 110.558 114.334 105.224 119.669C99.8896 125.003 92.6547 128 85.1108 128H42.4444C34.9005 128 27.6655 125.003 22.3312 119.669C16.9968 114.334 14 107.099 14 99.5555C13.9904 92.0289 15.6927 84.5987 18.9779 77.827C22.2632 71.0553 27.0454 65.1193 32.9629 60.4683C37.2293 57.0785 42.0377 54.4339 47.1851 52.6461C51.0119 51.283 54.9928 50.3992 59.0369 50.015C62.1894 49.6981 65.3658 49.6981 68.5183 50.015C72.5624 50.3992 76.5433 51.283 80.3701 52.6461C85.5175 54.4339 90.3259 57.0785 94.5923 60.4683C100.502 65.1265 105.278 71.0638 108.563 77.8339C111.847 84.6041 113.554 92.0307 113.555 99.5555Z" fill="#ADADAD"/>
<path d="M94.5923 18.9626V60.4676C90.3259 57.0779 85.5175 54.4333 80.3701 52.6454V18.9626C80.3701 17.0767 81.1193 15.2679 82.4529 13.9343C83.7865 12.6008 85.5952 11.8516 87.4812 11.8516C89.3672 11.8516 91.1759 12.6008 92.5095 13.9343C93.8431 15.2679 94.5923 17.0767 94.5923 18.9626Z" fill="#E5A1B4"/>
<path d="M63.7797 107.853L58.4938 105.032C57.9318 104.722 57.465 104.264 57.1434 103.709C56.8218 103.154 56.6577 102.521 56.6686 101.879C56.6528 101.432 56.7257 100.986 56.883 100.567C57.0404 100.149 57.2791 99.7651 57.5854 99.4389C57.8916 99.1128 58.2595 98.8505 58.6676 98.6673C59.0758 98.484 59.5162 98.3833 59.9634 98.3711H67.596C68.0432 98.3833 68.4836 98.484 68.8918 98.6673C69.2999 98.8505 69.6677 99.1128 69.974 99.4389C70.2803 99.7651 70.519 100.149 70.6764 100.567C70.8337 100.986 70.9066 101.432 70.8908 101.879C70.9017 102.521 70.7376 103.154 70.416 103.709C70.0944 104.264 69.6276 104.722 69.0656 105.032L63.7797 107.853Z" fill="#E5A1B4"/>
<path d="M83.9257 92.4431C85.8893 92.4431 87.4812 90.8512 87.4812 88.8876C87.4812 86.9239 85.8893 85.332 83.9257 85.332C81.962 85.332 80.3701 86.9239 80.3701 88.8876C80.3701 90.8512 81.962 92.4431 83.9257 92.4431Z" fill="#2D2D2D"/>
<path d="M43.6295 92.4431C45.5932 92.4431 47.1851 90.8512 47.1851 88.8876C47.1851 86.9239 45.5932 85.332 43.6295 85.332C41.6658 85.332 40.074 86.9239 40.074 88.8876C40.074 90.8512 41.6658 92.4431 43.6295 92.4431Z" fill="#2D2D2D"/>
</svg>
